ffmpeg version 2.8.11-0ubuntu0.16.04.1 Copyright (c) 2000-2017 the FFmpeg developers
  built with gcc 5.4.0 (Ubuntu 5.4.0-6ubuntu1~16.04.4) 20160609
  configuration: --prefix=/usr --extra-version=0ubuntu0.16.04.1 --build-suffix=-ffmpeg --toolchain=hardened --libdir=/usr/lib/x86_64-linux-gnu --incdir=/usr/include/x86_64-linux-gnu --cc=cc --cxx=g++ --enable-gpl --enable-shared --disable-stripping --disable-decoder=libopenjpeg --disable-decoder=libschroedinger --enable-avresample --enable-avisynth --enable-gnutls --enable-ladspa --enable-libass --enable-libbluray --enable-libbs2b --enable-libcaca --enable-libcdio --enable-libflite --enable-libfontconfig --enable-libfreetype --enable-libfribidi --enable-libgme --enable-libgsm --enable-libmodplug --enable-libmp3lame --enable-libopenjpeg --enable-libopus --enable-libpulse --enable-librtmp --enable-libschroedinger --enable-libshine --enable-libsnappy --enable-libsoxr --enable-libspeex --enable-libssh --enable-libtheora --enable-libtwolame --enable-libvorbis --enable-libvpx --enable-libwavpack --enable-libwebp --enable-libx265 --enable-libxvid --enable-libzvbi --enable-openal --enable-opengl --enable-x11grab --enable-libdc1394 --enable-libiec61883 --enable-libzmq --enable-frei0r --enable-libx264 --enable-libopencv
  libavutil      54. 31.100 / 54. 31.100
  libavcodec     56. 60.100 / 56. 60.100
  libavformat    56. 40.101 / 56. 40.101
  libavdevice    56.  4.100 / 56.  4.100
  libavfilter     5. 40.101 /  5. 40.101
  libavresample   2.  1.  0 /  2.  1.  0
  libswscale      3.  1.101 /  3.  1.101
  libswresample   1.  2.101 /  1.  2.101
  libpostproc    53.  3.100 / 53.  3.100
Input #0, mov,mp4,m4a,3gp,3g2,mj2, from '/var/www/html/done/resize/Sample_Videos.mp4':
  Metadata:
    major_brand     : isom
    minor_version   : 512
    compatible_brands: isomiso2avc1mp41
    encoder         : Lavf56.40.101
  Duration: 00:00:10.04, start: 0.000000, bitrate: 3068 kb/s
    Stream #0:0(eng): Video: h264 (High) (avc1 / 0x31637661), yuv420p, 1280x720, 2947 kb/s, 29.97 fps, 29.97 tbr, 500k tbn, 59.94 tbc (default)
    Metadata:
      handler_name    : VideoHandler
    Stream #0:1(eng): Audio: mp3 (mp4a / 0x6134706D), 44100 Hz, stereo, s16p, 127 kb/s (default)
    Metadata:
      handler_name    : SoundHandler
[Parsed_drawtext_0 @ 0x1cb79e0] Could not load font "/usr/share/fonts/truetype/freefont/FreeSerif.ttf": cannot open resource
[Parsed_drawtext_0 @ 0x1cb79e0] Using "/usr/share/fonts/truetype/dejavu/DejaVuSans.ttf"
[libx264 @ 0x1c8fc60] using cpu capabilities: MMX2 SSE2Fast SSSE3 SSE4.2
[libx264 @ 0x1c8fc60] profile High, level 3.1
[libx264 @ 0x1c8fc60] 264 - core 148 r2643 5c65704 - H.264/MPEG-4 AVC codec - Copyleft 2003-2015 - http://www.videolan.org/x264.html - options: cabac=1 ref=3 deblock=1:0:0 analyse=0x3:0x113 me=hex subme=7 psy=1 psy_rd=1.00:0.00 mixed_ref=1 me_range=16 chroma_me=1 trellis=1 8x8dct=1 cqm=0 deadzone=21,11 fast_pskip=1 chroma_qp_offset=-2 threads=22 lookahead_threads=3 sliced_threads=0 nr=0 decimate=1 interlaced=0 bluray_compat=0 constrained_intra=0 bframes=3 b_pyramid=2 b_adapt=1 b_bias=0 direct=1 weightb=1 open_gop=0 weightp=2 keyint=250 keyint_min=25 scenecut=40 intra_refresh=0 rc_lookahead=40 rc=crf mbtree=1 crf=23.0 qcomp=0.60 qpmin=0 qpmax=69 qpstep=4 ip_ratio=1.40 aq=1:1.00
Output #0, mp4, to '/var/www/html/done/watermark/Sample_Videos.mp4':
  Metadata:
    major_brand     : isom
    minor_version   : 512
    compatible_brands: isomiso2avc1mp41
    encoder         : Lavf56.40.101
    Stream #0:0(eng): Video: h264 (libx264) ([33][0][0][0] / 0x0021), yuv420p, 1280x720, q=-1--1, 29.97 fps, 500k tbn, 29.97 tbc (default)
    Metadata:
      handler_name    : VideoHandler
      encoder         : Lavc56.60.100 libx264
    Stream #0:1(eng): Audio: aac ([64][0][0][0] / 0x0040), 44100 Hz, stereo, fltp, 128 kb/s (default)
    Metadata:
      handler_name    : SoundHandler
      encoder         : Lavc56.60.100 aac
Stream mapping:
  Stream #0:0 -> #0:0 (h264 (native) -> h264 (libx264))
  Stream #0:1 -> #0:1 (mp3 (native) -> aac (native))
Press [q] to stop, [?] for help
frame=   59 fps=0.0 q=0.0 size=       0kB time=00:00:02.41 bitrate=   0.2kbits/s    frame=   85 fps= 84 q=29.0 size=     238kB time=00:00:03.29 bitrate= 592.5kbits/s    frame=  112 fps= 74 q=29.0 size=     603kB time=00:00:04.20 bitrate=1175.3kbits/s    frame=  139 fps= 69 q=29.0 size=     974kB time=00:00:05.08 bitrate=1568.6kbits/s    frame=  166 fps= 66 q=29.0 size=    1349kB time=00:00:05.96 bitrate=1851.9kbits/s    frame=  191 fps= 63 q=29.0 size=    1722kB time=00:00:06.80 bitrate=2073.1kbits/s    frame=  240 fps= 68 q=29.0 size=    2339kB time=00:00:08.45 bitrate=2267.3kbits/s    frame=  273 fps= 67 q=29.0 size=    2958kB time=00:00:08.87 bitrate=2731.4kbits/s    frame=  301 fps= 61 q=-1.0 Lsize=    3512kB time=00:00:09.97 bitrate=2883.8kbits/s    
video:3357kB audio:142kB subtitle:0kB other streams:0kB global headers:0kB muxing overhead: 0.348933%
[libx264 @ 0x1c8fc60] frame I:3     Avg QP:15.48  size: 58499
[libx264 @ 0x1c8fc60] frame P:134   Avg QP:23.63  size: 17154
[libx264 @ 0x1c8fc60] frame B:164   Avg QP:26.14  size:  5873
[libx264 @ 0x1c8fc60] consecutive B-frames:  8.0% 57.1%  3.0% 31.9%
[libx264 @ 0x1c8fc60] mb I  I16..4: 19.5% 75.1%  5.4%
[libx264 @ 0x1c8fc60] mb P  I16..4:  2.5% 12.9%  1.1%  P16..4: 36.7%  9.8%  4.9%  0.0%  0.0%    skip:32.0%
[libx264 @ 0x1c8fc60] mb B  I16..4:  0.6%  2.7%  0.1%  B16..8: 39.2%  3.8%  1.0%  direct: 1.3%  skip:51.3%  L0:44.8% L1:49.1% BI: 6.1%
[libx264 @ 0x1c8fc60] 8x8 transform intra:77.5% inter:89.1%
[libx264 @ 0x1c8fc60] coded y,uvDC,uvAC intra: 56.6% 67.1% 12.6% inter: 13.1% 10.2% 0.1%
[libx264 @ 0x1c8fc60] i16 v,h,dc,p: 20% 37%  9% 34%
[libx264 @ 0x1c8fc60] i8 v,h,dc,ddl,ddr,vr,hd,vl,hu: 18% 29% 18%  5%  6%  5%  7%  5%  7%
[libx264 @ 0x1c8fc60] i4 v,h,dc,ddl,ddr,vr,hd,vl,hu: 14% 48% 11%  4%  6%  4%  6%  3%  4%
[libx264 @ 0x1c8fc60] i8c dc,h,v,p: 46% 30% 17%  7%
[libx264 @ 0x1c8fc60] Weighted P-Frames: Y:2.2% UV:0.0%
[libx264 @ 0x1c8fc60] ref P L0: 56.9% 15.3% 19.0%  8.7%  0.0%
[libx264 @ 0x1c8fc60] ref B L0: 84.1% 14.6%  1.3%
[libx264 @ 0x1c8fc60] ref B L1: 96.3%  3.7%
[libx264 @ 0x1c8fc60] kb/s:2738.00
